<svg version="1.1" id="DT1B_copy_2" xmlns="http://www.w3.org/2000/svg" xmlns:xlink="http://www.w3.org/1999/xlink" x="0px" y="0px" width="171px" height="720px" viewBox="0 0 171 720" style="enable-background:new 0 0 171 720;" xml:space="preserve">
<style type="text/css">
	.st0{fill:#FFFFFF;}
	.st1{fill:#EFEFEF;}
	.st2{fill:#F1F1F1;}
	.st3{fill:#F5F5F5;}
	.st4{fill:url(#SVGID_1_);}
</style>
<rect class="st0" width="171" height="720"/>
<rect x="7.5" y="30.39" class="st1" width="156" height="64"/>
<rect x="7.5" y="398.53" class="st1" width="156" height="123.86"/>
<rect x="7.5" y="231.32" class="st2" width="59.94" height="46.22"/>
<polygon class="st3" points="127.68,259.36 163.5,259.36 163.5,231.32 71.84,231.32 71.84,267.32 127.68,267.32 "/>
<rect x="7.5" y="284.86" class="st2" width="59.94" height="46"/>
<polygon class="st3" points="127.68,320.69 163.5,320.69 163.5,284.86 71.84,284.86 71.84,330.86 127.68,330.86 "/>
<rect x="7.5" y="607.89" class="st2" width="59.94" height="46.22"/>
<polygon class="st3" points="127.68,639.09 163.5,639.09 163.5,607.89 71.84,607.89 71.84,647.95 127.68,647.95 "/>
<rect x="7.5" y="662.2" class="st2" width="59.94" height="46.22"/>
<polygon class="st3" points="127.68,693.39 163.5,693.39 163.5,662.2 71.84,662.2 71.84,702.25 127.68,702.25 "/>
<rect x="7.5" y="101.22" class="st3" width="156" height="55.06"/>
<rect x="7.5" y="163.21" class="st2" width="156" height="63.19"/>
<!-- 
<linearGradient id="SVGID_1_" gradientUnits="userSpaceOnUse" x1="85.5" y1="390" x2="85.5" y2="338">
	<stop  offset="0" style="stop-color:#23E79B"/>
	<stop  offset="1" style="stop-color:#01C0DA"/>
</linearGradient>
<rect x="7.5" y="338" class="st4" width="156" height="52"/>
 -->

<rect x="7.5" y="530.1" class="st2" width="156" height="66.81"/>
</svg>
