<svg version="1.1" id="Layer_7_copy" xmlns="http://www.w3.org/2000/svg" xmlns:xlink="http://www.w3.org/1999/xlink" x="0px" y="0px" width="171px" height="780px" viewBox="0 0 171 780" style="enable-background:new 0 0 171 780;" xml:space="preserve">
<style type="text/css">
	.st0{fill:#FFFFFF;}
	.st1{fill:#EFEFEF;}
	.st2{fill:#F1F1F1;}
	.st3{fill:#F5F5F5;}
</style>
<rect class="st0" width="171" height="780"/>
<rect x="7.32" y="7.35" class="st1" width="157.14" height="87.04"/>
<rect x="7.32" y="363.99" class="st1" width="157.14" height="99.4"/>
<rect x="7.32" y="201.02" class="st2" width="60.08" height="46.22"/>
<polygon class="st3" points="128.64,232.22 164.45,232.22 164.45,201.02 72.79,201.02 72.79,241.07 128.64,241.07 "/>
<rect x="7.32" y="255.32" class="st2" width="60.08" height="46.22"/>
<polygon class="st3" points="128.64,286.52 164.45,286.52 164.45,255.32 72.79,255.32 72.79,295.38 128.64,295.38 "/>
<rect x="7.32" y="308.86" class="st2" width="60.08" height="46.22"/>
<polygon class="st3" points="128.64,340.05 164.45,340.05 164.45,308.86 72.79,308.86 72.79,348.91 128.64,348.91 "/>
<rect x="7.32" y="607.89" class="st2" width="60.08" height="46.22"/>
<polygon class="st3" points="128.64,639.09 164.45,639.09 164.45,607.89 72.79,607.89 72.79,647.95 128.64,647.95 "/>
<rect x="7.32" y="662.2" class="st2" width="60.08" height="46.22"/>
<polygon class="st3" points="128.64,693.39 164.45,693.39 164.45,662.2 72.79,662.2 72.79,702.25 128.64,702.25 "/>
<rect x="7.32" y="715.73" class="st2" width="60.08" height="46.22"/>
<polygon class="st3" points="128.64,746.93 164.45,746.93 164.45,715.73 72.79,715.73 72.79,755.78 128.64,755.78 "/>
<rect x="7.32" y="111.22" class="st3" width="156.36" height="55.06"/>
<rect x="7.32" y="179.1" class="st2" width="156.36" height="13.18"/>
<rect x="7.32" y="472.22" class="st3" width="156.36" height="49.96"/>
<rect x="7.32" y="530.1" class="st2" width="156.36" height="66.81"/>
</svg>
