<svg version="1.1" id="Layer_5" xmlns="http://www.w3.org/2000/svg" xmlns:xlink="http://www.w3.org/1999/xlink" x="0px" y="0px"
	 width="727px" height="434px" viewBox="0 0 727 434" style="enable-background:new 0 0 727 434;" xml:space="preserve">
<style type="text/css">
	.st0{fill:#FFFFFF;}
	.st1{fill:#E9E9E9;}
	.st2{fill:#EFEFEF;}
	.st3{fill:#F1F1F1;}
</style>
<rect y="88" class="st0" width="727" height="346"/>
<rect class="st1" width="727" height="52.52"/>
<rect x="349.36" y="14.14" class="st0" width="26.87" height="24.04"/>
<rect y="52.52" class="st2" width="727" height="35.48"/>
<rect x="21.22" y="111.74" class="st3" width="418.66" height="291.37"/>
<rect x="454.02" y="111.74" transform="matrix(-1 -1.224647e-16 1.224647e-16 -1 1158.391 256.0058)" class="st3" width="250.35" height="32.53"/>
<rect x="454.02" y="164.07" transform="matrix(-1 -1.224647e-16 1.224647e-16 -1 1130.1031 360.6712)" class="st3" width="222.06" height="32.53"/>
<rect x="454.02" y="214.99" transform="matrix(-1 -1.224647e-16 1.224647e-16 -1 1036.7529 462.5078)" class="st3" width="128.71" height="32.53"/>
<rect x="164.07" y="63.65" class="st0" width="90.52" height="14.14"/>
<rect x="267.32" y="63.65" class="st0" width="66.48" height="14.14"/>
<rect x="345.11" y="63.65" class="st0" width="108.91" height="14.14"/>
<rect x="466.75" y="63.65" class="st0" width="91.94" height="14.14"/>
<polygon class="st3" points="623.75,362.09 700.13,362.09 700.13,265.91 456.85,265.91 456.85,383.3 623.75,383.3 "/>
</svg>
