<?xml version="1.0" encoding="utf-8"?>
<!-- Generator: Adobe Illustrator 20.1.0, SVG Export Plug-In . SVG Version: 6.00 Build 0)  -->
<svg version="1.1" id="Layer_7" xmlns="http://www.w3.org/2000/svg" xmlns:xlink="http://www.w3.org/1999/xlink" x="0px" y="0px"
	 width="727px" height="1324px" viewBox="0 0 727 1324" style="enable-background:new 0 0 727 1324;" xml:space="preserve">
<style type="text/css">
	.st0{fill:#FFFFFF;}
	.st1{fill:#D3D3D3;}
	.st2{fill:#E2E2E2;}
	.st3{fill:#F1F1F1;}
	.st4{fill:#FAFAFA;}
	.st5{fill:#EDEDED;}
</style>
<rect y="88.02" class="st0" width="727" height="398.89"/>
<rect y="880.17" class="st0" width="727" height="443.83"/>
<g>
	<rect class="st1" width="727" height="52.44"/>
	<rect y="52.44" class="st2" width="727" height="35.58"/>
	<rect x="350.4" y="14.05" class="st0" width="26.2" height="24.35"/>
	<rect x="164.07" y="63.7" class="st0" width="90.52" height="14.15"/>
	<rect x="267.32" y="63.7" class="st0" width="66.48" height="14.15"/>
	<rect x="345.11" y="63.7" class="st0" width="108.91" height="14.15"/>
	<rect x="466.75" y="63.7" class="st0" width="91.94" height="14.15"/>
</g>
<g>
	<rect x="21.22" y="111.82" class="st3" width="418.66" height="218.8"/>
	
		<rect x="454.02" y="111.82" transform="matrix(-1 -1.224647e-16 1.224647e-16 -1 1158.391 256.1976)" class="st3" width="250.35" height="32.56"/>
	
		<rect x="454.02" y="162.32" transform="matrix(-1 -1.224647e-16 1.224647e-16 -1 1130.1031 357.196)" class="st3" width="222.06" height="32.56"/>
	<polygon class="st3" points="623.75,306.18 700.13,306.18 700.13,209.92 456.85,209.92 456.85,327.41 623.75,327.41 	"/>
</g>
<g>
	<rect x="19.8" y="918.16" class="st3" width="138.61" height="107.57"/>
	<polygon class="st4" points="282.24,990.92 350.77,990.92 350.77,918.16 175.39,918.16 175.39,1011.58 282.24,1011.58 	"/>
	<rect x="374.82" y="918.16" class="st3" width="138.61" height="107.57"/>
	<polygon class="st4" points="637.25,990.92 705.78,990.92 705.78,918.16 530.4,918.16 530.4,1011.58 637.25,1011.58 	"/>
</g>
<g>
	<rect x="19.8" y="1052.09" class="st3" width="138.61" height="107.57"/>
	<polygon class="st4" points="282.24,1124.85 350.77,1124.85 350.77,1052.09 175.39,1052.09 175.39,1145.51 282.24,1145.51 	"/>
	<rect x="374.82" y="1052.09" class="st3" width="138.61" height="107.57"/>
	<polygon class="st4" points="637.25,1124.85 705.78,1124.85 705.78,1052.09 530.4,1052.09 530.4,1145.51 637.25,1145.51 	"/>
</g>
<g>
	<rect x="19.8" y="1186.01" class="st3" width="138.61" height="107.57"/>
	<polygon class="st4" points="282.24,1258.77 350.77,1258.77 350.77,1186.01 175.39,1186.01 175.39,1279.43 282.24,1279.43 	"/>
</g>
<rect x="22.46" y="346.89" class="st5" width="679.28" height="116.9"/>
</svg>
