<svg version="1.1" id="site" xmlns="http://www.w3.org/2000/svg" xmlns:xlink="http://www.w3.org/1999/xlink" x="0px" y="0px" width="777px" height="986px" viewBox="0 0 777 986" style="enable-background:new 0 0 777 986;" xml:space="preserve">
<style type="text/css">
	.st0{fill:#FFFFFF;}
	.st1{fill:#EDEDED;}
	.st2{fill:#E4E4E4;}
	.st3{fill:#D3D3D3;}
	.st4{fill:#E2E2E2;}
	.st5{fill:url(#SVGID_1_);}
</style>
<rect y="94" class="st0" width="777" height="892"/>
<rect x="24" y="155" class="st1" width="732" height="212"/>
<rect x="24" y="610" class="st1" width="732" height="200"/>
<rect x="24" y="834" class="st1" width="732" height="140"/>
<rect x="24" y="390" class="st1" width="470" height="200"/>
<rect x="22.68" y="119.42" class="st2" width="445.94" height="13.61"/>
<rect x="485.25" y="119.42" class="st2" width="267.57" height="13.61"/>
<g>
	<rect class="st3" width="777" height="56"/>
	<rect y="56" class="st4" width="777" height="38"/>
	<rect x="374.5" y="15" class="st0" width="28" height="26"/>
	<rect x="175.35" y="68.03" class="st0" width="96.75" height="15.12"/>
	<rect x="285.71" y="68.03" class="st0" width="71.05" height="15.12"/>
	<rect x="368.85" y="68.03" class="st0" width="116.4" height="15.12"/>
	<rect x="498.85" y="68.03" class="st0" width="98.26" height="15.12"/>
</g>

<!-- 
<linearGradient id="SVGID_1_" gradientUnits="userSpaceOnUse" x1="634" y1="590" x2="634" y2="390">
	<stop  offset="0" style="stop-color:#23E79B"/>
	<stop  offset="1" style="stop-color:#01C0DA"/>
</linearGradient>
<rect x="512" y="390" class="st5" width="244" height="200"/>
 -->

</svg>
