<?xml version="1.0" encoding="utf-8"?>
<!-- Generator: Adobe Illustrator 20.1.0, SVG Export Plug-In . SVG Version: 6.00 Build 0)  -->
<svg version="1.1" id="ad_slot" xmlns="http://www.w3.org/2000/svg" xmlns:xlink="http://www.w3.org/1999/xlink" x="0px" y="0px"
	 width="727px" height="1135.88px" viewBox="0 0 727 1135.88" style="enable-background:new 0 0 727 1135.88;" xml:space="preserve"
	>
<style type="text/css">
	.st0{fill:#FFFFFF;}
	.st1{fill:#EDEDED;}
	.st2{fill:#E4E4E4;}
	.st3{fill:#D3D3D3;}
	.st4{fill:#E2E2E2;}
	.st5{fill:#FFB545;}
</style>
<rect y="87.95" class="st0" width="727" height="1047.93"/>
<rect x="22.46" y="135.67" class="st1" width="684.9" height="70.26"/>
<rect x="22.46" y="219.31" class="st1" width="684.9" height="219.29"/>
<rect x="22.46" y="651.21" class="st1" width="684.9" height="232.05"/>
<rect x="22.46" y="896.35" class="st1" width="684.9" height="207.71"/>
<rect x="22.46" y="449.11" class="st1" width="439.76" height="187.13"/>
<rect x="21.22" y="108.93" class="st2" width="417.25" height="12.73"/>
<rect x="454.02" y="108.93" class="st2" width="250.35" height="12.73"/>
<g>
	<rect class="st3" width="727" height="52.4"/>
	<rect y="52.4" class="st4" width="727" height="35.55"/>
	<rect x="350.4" y="14.03" class="st0" width="26.2" height="24.33"/>
	<rect x="164.07" y="63.65" class="st0" width="90.52" height="14.14"/>
	<rect x="267.32" y="63.65" class="st0" width="66.48" height="14.14"/>
	<rect x="345.11" y="63.65" class="st0" width="108.91" height="14.14"/>
	<rect x="466.75" y="63.65" class="st0" width="91.94" height="14.14"/>
</g>

</svg>
